<?xml version="1.0" encoding="UTF-8" standalone="no"?>
<!-- Created with Inkscape (http://www.inkscape.org/) -->
<svg id="svg3346" xmlns:rdf="http://www.w3.org/1999/02/22-rdf-syntax-ns#" xmlns="http://www.w3.org/2000/svg" height="40" width="200" version="1.1" xmlns:cc="http://creativecommons.org/ns#" xmlns:dc="http://purl.org/dc/elements/1.1/" viewBox="0 0 200 40.000002">
 <metadata id="metadata3351">
  <rdf:RDF>
   <cc:Work rdf:about="">
    <dc:format>image/svg+xml</dc:format>
    <dc:type rdf:resource="http://purl.org/dc/dcmitype/StillImage"/>
    <dc:title/>
   </cc:Work>
  </rdf:RDF>
 </metadata>
 <g id="layer1" transform="translate(2.3021e-8 -1012.4)">
  <g id="g3454" transform="matrix(.13953 0 0 .13953 .77446 1038.2)">
   <g id="g3681" transform="translate(7.1194 -281.45)">
    <path id="path3" fill="#1586c4" d="m149.9 281c-6.8824 6.0412-15.225 9.1695-25.034 9.1695h-25.854v21.28h-22.948v-21.28h-27.731c-9.8022 0-18.144-3.1284-25.034-9.1695-6.8754-6.0482-10.421-13.973-10.421-23.574v-55.886c0-8.9679 3.5455-16.685 10.845-23.15 7.3064-6.4653 15.44-9.5936 24.61-9.5936h76.533c9.1765 0 17.31 3.1284 24.617 9.5936 7.2925 6.4653 10.845 14.182 10.845 23.15v55.886c0 9.6075-3.5455 17.526-10.428 23.574zm-12.506-79.453c0-2.9198-1.2513-5.4225-3.9626-7.7166-2.7112-2.2941-5.4155-3.33-8.5508-3.33h-76.533c-3.1284 0-5.8396 1.0358-8.5439 3.33-2.7182 2.2941-3.9626 4.7968-3.9626 7.7166v55.886c0 7.3064 4.1711 10.852 12.513 10.852h27.731v-19.604h22.948v19.604h25.854c8.3492 0 12.52-3.5455 12.52-10.852v-55.886z"/>
    <path id="path5" d="m316.74 281c-6.8754 6.0412-15.426 9.1695-25.228 9.1695h-71.744c-9.8022 0-18.137-3.1284-25.027-9.1695-6.8824-6.0482-10.428-13.973-10.428-23.574v-55.886c0-8.9679 3.5455-16.685 10.852-23.15 7.2995-6.4653 15.433-9.5936 24.603-9.5936h98.369v21.69h-98.369c-3.1214 0-5.8396 1.0358-8.5439 3.33-2.7043 2.2941-3.9556 4.7968-3.9556 7.7166v55.886c0 7.3064 4.1711 10.852 12.506 10.852h71.744c8.5439 0 12.722-3.5455 12.722-10.852v-5.8396c0-3.1214-1.2583-5.631-3.9626-7.7096-2.7182-2.2941-5.638-3.3369-8.7594-3.3369h-71.744v-21.69h71.744c9.3851 0 17.519 3.1284 24.603 9.392 7.3064 6.4653 10.852 14.182 10.852 23.351v5.8396c-0.007 9.6075-3.3439 17.526-10.233 23.574z"/>
    <path id="path7" d="m350.33 290.18v-121.37h22.941v121.37h-22.941z"/>
    <path id="path9" d="m433.54 190.49c-3.1353 0-5.8396 1.0358-8.5508 3.33-2.7112 2.2941-3.9626 4.7968-3.9626 7.7166v6.0481c0 7.2995 4.1711 10.845 12.52 10.845l72.154 0.20856c9.8022 0 18.144 2.9198 24.811 8.7594 7.0979 6.2498 10.643 14.182 10.643 23.775v6.2498c0 9.1765-3.5524 16.9-10.852 23.15-7.2995 6.4653-15.433 9.5936-24.61 9.5936h-108.03v-21.683h108.03c3.1284 0 5.8396-1.0428 8.5439-3.1284 2.7182-2.2941 3.9626-4.7968 3.9626-7.9321v-6.2498c0-7.2995-4.1711-10.845-12.513-10.845l-72.154-0.20856c-9.8022 0-18.144-2.9198-25.034-8.9679-6.8754-6.0481-10.428-13.973-10.428-23.567v-6.0481c0-8.9679 3.5524-16.685 10.845-23.15 7.3064-6.4653 15.44-9.5936 24.617-9.5936h101.07v21.69h-101.07z"/>
   </g>
   <g id="g3433" fill="#808080" transform="translate(16 -143.34)">
    <path id="path3367" d="m736.1 151.49h-106.88q-14.612 0-25.05-9.185t-10.438-23.589v-55.945q0-13.569 10.855-23.171 10.855-9.6025 24.632-9.6025h106.88v21.71h-106.88q-4.5925 0-8.5588 3.34-3.9662 3.34-3.9662 7.7237v55.945q0 10.855 12.525 10.855h106.88v21.919z"/>
    <path id="path3369" d="m884.91 151.49h-90.18q-14.612 0-25.05-9.185t-10.438-23.589v-88.719h22.962v88.719q0 10.855 12.525 10.855h90.18v21.919z"/>
    <path id="path3371" d="m1054.4 118.72q0 14.404-10.438 23.589t-25.05 9.185h-76.611q-14.612 0-25.05-9.185t-10.438-23.589v-55.945q0-13.569 10.855-23.171 10.855-9.6025 24.632-9.6025h76.611q13.778 0 24.632 9.6025 10.855 9.6025 10.855 23.171v55.945zm-22.962 0v-55.945q0-4.3837-3.9663-7.7237-3.9662-3.34-8.5587-3.34h-76.611q-4.5925 0-8.5588 3.34-3.9662 3.34-3.9662 7.7237v55.945q0 10.855 12.525 10.855h76.611q12.525 0 12.525-10.855z"/>
    <path id="path3373" d="m1222.4 118.72q0 14.404-10.438 23.589t-25.05 9.185h-76.611q-14.612 0-25.05-9.185t-10.438-23.589v-88.719h22.962v88.719q0 10.855 12.525 10.855h76.611q12.525 0 12.525-10.855v-88.719h22.962v88.719z"/>
    <path id="path3375" d="m1386.3 118.72q0 14.404-10.438 23.589t-25.05 9.185h-71.81q-14.821 0-24.841-8.9762-10.646-9.3937-10.646-23.797v-5.845q0-13.777 11.064-23.38 10.438-9.3937 24.424-9.3937h71.81v21.71h-71.81q-4.5925 0-8.7675 3.34-3.9663 3.1312-3.9663 7.7238v5.845q0 10.855 12.734 10.855h71.81q12.525 0 12.525-10.855v-88.719h22.962v88.719z"/>
   </g>
  </g>
  <g id="text4188" fill="#1586c4" transform="translate(-4.7335 .0000047684)">
   <path id="path4149" d="m159.09 1048.3h-9.8282v4.0722h-1.89v-7.3024q0-1.1168 0.89347-1.9072t2.0275-0.7904h8.7972v1.787h-8.7972q-0.378 0-0.70446 0.2749t-0.32646 0.6357v1.3918h9.8282v1.8384z"/>
   <path id="path4151" d="m172.24 1052.4h-1.89v-3.2474q0-0.3952-0.30928-0.6014-0.30928-0.2234-0.72165-0.2234h-6.8385v-1.8384h6.8385q1.0309 0 1.0309-0.842v-0.5326q0-0.9107-1.0309-0.9107h-7.4227v8.1959h-1.8728v-9.9828h9.2955q1.2199 0 2.0618 0.756 0.85911 0.756 0.85911 1.9416v0.5326q0 0.9794-0.73883 1.7526 0.73883 0.7904 0.73883 1.7526v3.2474z"/>
   <path id="path4153" d="m185.18 1045.6q0 1.1168-0.89347 1.9072t-2.0275 0.7904h-5.9278v-1.8041h5.9278q0.36083 0 0.68729-0.2578 0.34364-0.2749 0.34364-0.6357v-0.4811q0-0.9107-1.0309-0.9107h-5.9278q-1.0309 0-1.0309 0.9107v4.5876q0 0.378 0.32646 0.6529 0.32646 0.2578 0.70447 0.2578h8.677v1.7869h-8.677q-1.134 0-2.0275-0.7732-0.89348-0.7904-0.89348-1.9244v-4.5876q0-1.2028 0.85911-1.9416 0.85911-0.756 2.0619-0.756h5.9278q1.2028 0 2.0619 0.756 0.8591 0.7388 0.8591 1.9416v0.4811z"/>
   <path id="path4155" d="m198 1045.6q0 1.1168-0.89347 1.9072t-2.0275 0.7904h-5.9278v-1.8041h5.9278q0.36083 0 0.68729-0.2578 0.34364-0.2749 0.34364-0.6357v-0.4811q0-0.9107-1.0309-0.9107h-5.9278q-1.0309 0-1.0309 0.9107v4.5876q0 0.378 0.32646 0.6529 0.32646 0.2578 0.70447 0.2578h8.677v1.7869h-8.677q-1.134 0-2.0275-0.7732-0.89347-0.7904-0.89347-1.9244v-4.5876q0-1.2028 0.8591-1.9416 0.85911-0.756 2.0619-0.756h5.9278q1.2028 0 2.0619 0.756 0.8591 0.7388 0.8591 1.9416v0.4811z"/>
  </g>
 </g>
</svg>
